<?xml version="1.0" standalone="no"?>
<!DOCTYPE svg PUBLIC "-//W3C//DTD SVG 20010904//EN"
 "http://www.w3.org/TR/2001/REC-SVG-20010904/DTD/svg10.dtd">
<svg version="1.0" xmlns="http://www.w3.org/2000/svg"
 width="225.000000pt" height="225.000000pt" viewBox="0 0 225.000000 225.000000"
 preserveAspectRatio="xMidYMid meet">

<g transform="translate(0.000000,225.000000) scale(0.100000,-0.100000)"
fill="#000000" stroke="none">
<path d="M610 2235 c-6 -8 -9 -22 -6 -32 3 -10 66 -78 140 -152 l135 -134 -26
-33 c-27 -36 -27 -61 -1 -77 13 -9 27 0 75 49 123 127 273 127 396 0 48 -49
62 -58 75 -49 26 16 26 41 -1 77 l-26 33 135 134 c74 74 137 142 140 152 7 21
-12 47 -34 47 -8 0 -79 -63 -156 -140 l-141 -140 -60 25 c-82 34 -178 34 -260
0 l-60 -25 -141 140 c-77 77 -148 140 -156 140 -9 0 -21 -7 -28 -15z"/>
<path d="M135 1706 c-37 -16 -89 -67 -113 -110 -15 -28 -17 -90 -20 -701 -2
-486 0 -685 8 -724 16 -71 83 -142 152 -159 67 -17 1859 -17 1926 0 69 17 136
88 152 159 8 39 10 238 8 724 -3 743 1 694 -70 765 -63 63 -8 60 -1055 60
-772 -1 -964 -3 -988 -14z m1948 -67 c48 -25 76 -62 87 -114 7 -34 10 -264 8
-696 -3 -624 -4 -645 -23 -677 -11 -18 -36 -43 -55 -55 l-35 -22 -940 0 -940
0 -35 22 c-74 46 -70 1 -70 768 0 686 0 687 21 717 12 16 36 39 53 49 30 18
66 19 969 19 674 0 944 -3 960 -11z"/>
<path d="M625 1564 c-216 -22 -281 -38 -338 -85 -84 -69 -110 -155 -129 -432
-13 -196 -1 -480 26 -608 34 -157 114 -232 276 -258 127 -21 425 -33 637 -27
385 11 507 33 580 108 23 24 51 64 63 90 46 106 71 459 51 723 -20 247 -44
331 -116 393 -89 79 -179 92 -645 97 -201 1 -383 1 -405 -1z m685 -74 c180
-14 236 -25 289 -58 64 -39 88 -92 107 -232 30 -228 15 -696 -26 -805 -32 -84
-93 -126 -212 -145 -191 -30 -790 -30 -986 0 -138 22 -200 79 -228 210 -21
103 -32 373 -23 560 19 399 56 444 385 469 159 12 538 13 694 1z"/>
<path d="M1320 1331 c-16 -31 1 -48 53 -56 111 -16 113 -19 125 -111 7 -60 26
-82 57 -70 15 5 17 16 13 75 -9 120 -53 165 -175 177 -56 6 -62 5 -73 -15z"/>
<path d="M1512 998 c-17 -17 -15 -73 3 -88 8 -6 23 -9 35 -5 18 6 21 13 18 53
-2 38 -7 48 -23 50 -11 1 -26 -3 -33 -10z"/>
<path d="M1944 1490 c-67 -27 -87 -129 -35 -181 40 -39 105 -41 150 -3 94 79
-1 230 -115 184z m76 -106 c0 -28 -25 -42 -49 -27 -23 15 -26 45 -6 59 25 18
55 0 55 -32z"/>
<path d="M1944 1190 c-38 -15 -64 -59 -64 -107 0 -120 164 -145 210 -33 36 87
-57 176 -146 140z m76 -106 c0 -28 -25 -42 -49 -27 -23 15 -26 45 -6 59 25 18
55 0 55 -32z"/>
</g>
</svg>
