<?xml version="1.0" standalone="no"?>
<!DOCTYPE svg PUBLIC "-//W3C//DTD SVG 20010904//EN"
 "http://www.w3.org/TR/2001/REC-SVG-20010904/DTD/svg10.dtd">
<svg version="1.0" xmlns="http://www.w3.org/2000/svg"
 width="225.000000pt" height="225.000000pt" viewBox="0 0 225.000000 225.000000"
 preserveAspectRatio="xMidYMid meet">

<g transform="translate(0.000000,225.000000) scale(0.100000,-0.100000)"
fill="#000000" stroke="none">
<path d="M1251 2129 c-97 -18 -171 -121 -171 -236 0 -127 62 -205 188 -237
l43 -11 -93 -130 -93 -129 -110 -59 c-60 -32 -120 -68 -132 -79 -30 -28 -46
-81 -40 -134 l5 -44 -49 0 c-26 0 -59 -4 -72 -9 -21 -8 -29 -4 -60 34 -50 59
-111 87 -191 87 -77 -1 -127 -23 -179 -81 -56 -62 -73 -154 -42 -228 20 -48
20 -50 -18 -57 -60 -11 -107 -77 -107 -151 0 -104 60 -167 166 -173 l64 -4 0
-152 c0 -181 7 -201 65 -201 58 0 65 20 65 203 l0 152 418 0 417 -1 20 -31
c43 -68 58 -72 253 -78 l177 -5 3 -109 c1 -61 8 -116 14 -123 6 -7 25 -13 44
-13 53 0 64 26 64 147 l0 103 58 0 c60 0 108 21 143 63 31 38 41 117 37 305
-3 160 -5 181 -25 219 -36 66 -83 96 -159 101 -56 4 -65 7 -68 26 -2 11 -9 57
-16 101 -15 96 -60 228 -108 314 -72 129 -195 261 -244 261 -19 0 -24 15 -9
24 5 4 14 29 20 56 36 167 -107 310 -278 279z m125 -163 c89 -89 -3 -231 -119
-182 -46 19 -67 51 -67 104 0 37 6 50 34 78 28 28 42 34 76 34 34 0 48 -6 76
-34z m184 -363 c117 -134 187 -298 214 -505 l5 -38 -58 0 -58 0 -13 72 c-15
85 -47 183 -84 255 -27 55 -59 74 -91 56 -9 -5 -55 -67 -103 -138 l-87 -129
-133 -55 c-111 -45 -138 -53 -160 -45 -29 10 -38 38 -28 80 5 20 31 36 129 83
l122 58 89 134 c164 247 180 258 256 172z m-57 -390 c26 -98 30 -133 14 -139
-7 -2 -60 -3 -118 -2 -100 3 -103 4 -74 18 18 9 52 49 88 103 32 48 61 85 66
83 4 -3 15 -31 24 -63z m-951 -171 c53 -50 45 -136 -16 -173 -115 -70 -236 81
-138 173 47 45 107 45 154 0z m758 -142 l0 -60 -284 0 c-283 0 -285 0 -300 22
-9 12 -16 29 -16 38 0 9 7 26 16 38 15 22 17 22 300 22 l284 0 0 -60z m673 33
c13 -15 16 -54 18 -228 l3 -210 -25 -12 c-17 -9 -95 -13 -270 -13 -234 0 -248
1 -273 21 l-26 20 0 220 0 219 278 0 c253 0 280 -2 295 -17z m-683 -268 l0
-65 -513 0 c-493 0 -515 1 -531 19 -26 28 -18 82 14 98 19 10 144 13 528 13
l502 0 0 -65z"/>
</g>
</svg>
