<?xml version="1.0" standalone="no"?>
<!DOCTYPE svg PUBLIC "-//W3C//DTD SVG 20010904//EN"
 "http://www.w3.org/TR/2001/REC-SVG-20010904/DTD/svg10.dtd">
<svg version="1.0" xmlns="http://www.w3.org/2000/svg"
 width="225.000000pt" height="225.000000pt" viewBox="0 0 225.000000 225.000000"
 preserveAspectRatio="xMidYMid meet">

<g transform="translate(0.000000,225.000000) scale(0.100000,-0.100000)"
fill="#000000" stroke="none">
<path d="M629 2236 c-56 -20 -96 -53 -126 -104 l-28 -47 -3 -708 c-2 -487 1
-721 8 -748 15 -53 80 -124 134 -144 33 -13 45 -24 55 -51 26 -73 102 -134
184 -149 l37 -7 0 -93 c0 -84 -2 -93 -20 -98 -23 -6 -28 -55 -8 -75 15 -15
122 -16 149 -2 27 15 24 56 -6 76 -24 15 -25 21 -25 105 l0 89 145 0 145 0 0
-89 c0 -84 -1 -90 -25 -105 -30 -20 -33 -61 -6 -76 27 -14 134 -13 149 2 20
20 15 69 -8 75 -18 5 -20 14 -20 98 l0 93 37 7 c82 15 158 76 184 149 10 27
21 39 48 47 19 6 54 29 77 51 77 71 75 41 72 845 l-3 710 -30 49 c-19 30 -49
60 -79 79 l-49 30 -476 2 c-372 2 -484 0 -512 -11z m994 -100 c36 -24 67 -85
67 -131 l0 -35 -565 0 -565 0 0 35 c0 66 48 133 105 148 11 3 225 4 475 4 429
-2 457 -3 483 -21z m65 -778 l2 -518 -565 0 -565 0 0 513 c0 283 3 517 7 520
3 4 257 6 562 5 l556 -3 3 -517z m2 -643 c0 -54 -34 -111 -80 -135 -38 -19
-58 -20 -485 -20 -427 0 -447 1 -485 20 -46 24 -80 81 -80 135 l0 35 565 0
565 0 0 -35z m-200 -253 c0 -17 -33 -53 -63 -70 -28 -15 -64 -17 -302 -17
-238 0 -274 2 -302 17 -30 17 -63 53 -63 70 0 5 164 8 365 8 201 0 365 -3 365
-8z"/>
<path d="M1037 1766 c-59 -22 -114 -64 -147 -114 -36 -54 -43 -90 -38 -182 3
-61 8 -76 43 -126 28 -40 57 -67 95 -88 49 -27 64 -31 135 -31 71 0 86 4 135
31 38 22 67 48 95 88 38 55 40 63 44 142 2 71 0 91 -19 130 -28 57 -77 107
-133 135 -53 28 -157 35 -210 15z m186 -110 c61 -35 91 -96 85 -171 -9 -103
-81 -170 -183 -170 -104 0 -176 68 -183 173 -5 82 26 137 99 175 65 35 115 33
182 -7z"/>
<path d="M862 1018 c-17 -17 -15 -65 4 -72 20 -8 498 -8 518 0 19 7 21 55 4
72 -17 17 -509 17 -526 0z"/>
</g>
</svg>
